HIERARCHY
ROOT Hips
{
  OFFSET 14.6157 62.3436 -181.288
  CHANNELS 6 Xposition Yposition Zposition Zrotation Xrotation Yrotation
  JOINT RightUpLeg
  {
    OFFSET -8.9458 -8.66707 0.101652
    CHANNELS 3 Zrotation Xrotation Yrotation
    JOINT RightLeg
    {
      OFFSET 0 -44.4227 1.3727
      CHANNELS 3 Zrotation Xrotation Yrotation
      JOINT RightFoot
      {
        OFFSET 0.253549 -42.0924 -1.46059
        CHANNELS 3 Zrotation Xrotation Yrotation
        JOINT RightToes
        {
          OFFSET 0.04 -4.41509 8.4991
          CHANNELS 3 Zrotation Xrotation Yrotation
          End Site
          {
            OFFSET -0.08 -0.137448 9.77979
          }
        }
      }
    }
  }
  JOINT Spine
  {
    OFFSET 0 11.8905 0
    CHANNELS 3 Zrotation Xrotation Yrotation
    JOINT Spine1
    {
      OFFSET 0 25.6574 0.127663
      CHANNELS 3 Zrotation Xrotation Yrotation
      JOINT HEad
      {
        OFFSET 0 8.73416 0.011341
        CHANNELS 3 Zrotation Xrotation Yrotation
        End Site
        {
          OFFSET -0.29 12.7742 2.51395
        }
      }
      JOINT LeftShoulder1
      {
        OFFSET 8.99 -0.362252 -0.22
        CHANNELS 3 Zrotation Xrotation Yrotation
        JOINT LeftArm
        {
          OFFSET 10.2827 -0.00338 0.322123
          CHANNELS 3 Zrotation Xrotation Yrotation
          JOINT LeftForeArm
          {
            OFFSET 32.7669 0.099144 -1.42434
            CHANNELS 3 Zrotation Xrotation Yrotation
            JOINT LeftHand
            {
              OFFSET 27.5643 0.085362 1.02216
              CHANNELS 3 Zrotation Xrotation Yrotation
              End Site
              {
                OFFSET 16.7443 -0.6 1.50291
              }
            }
          }
        }
      }
      JOINT RightShoulder
      {
        OFFSET -8.99 -0.362252 -0.22
        CHANNELS 3 Zrotation Xrotation Yrotation
        JOINT RightArm
        {
          OFFSET -10.2827 -0.00338 0.322123
          CHANNELS 3 Zrotation Xrotation Yrotation
          JOINT RightForeArm
          {
            OFFSET -32.8971 0.099144 -1.42434
            CHANNELS 3 Zrotation Xrotation Yrotation
            JOINT RightHand
            {
              OFFSET -27.4921 0.085362 1.02216
              CHANNELS 3 Zrotation Xrotation Yrotation
              End Site
              {
                OFFSET -16.6312 -0.6 1.50291
              }
            }
          }
        }
      }
    }
  }
  JOINT LeftUpLeg
  {
    OFFSET 8.9458 -8.66707 0.101652
    CHANNELS 3 Zrotation Xrotation Yrotation
    JOINT LeftLeg
    {
      OFFSET 0 -44.4227 1.3727
      CHANNELS 3 Zrotation Xrotation Yrotation
      JOINT LeftFoot
      {
        OFFSET -0.253549 -42.0924 -1.46059
        CHANNELS 3 Zrotation Xrotation Yrotation
        JOINT LeftToes
        {
          OFFSET -0.04 -4.41509 8.4991
          CHANNELS 3 Zrotation Xrotation Yrotation
          End Site
          {
            OFFSET 0.08 -0.047448 9.77979
          }
        }
      }
    }
  }
}
MOTION
Frames:	19
Frame Time:	0.0166667
43.9525 91.1284 -121.792 -2.03131 4.42489 -16.7014 -13.9862 -21.9236 -3.13933 15.1015 53.9338 -34.8396 4.19817 -0.365554 -0.0641499 0.0462048 0.000533403 0.662642 -6.85571 8.24453 5.35532 -5.038e-012 -5.55446e-009 1.14023e-012 -7.03403 4.18066 22.126 1.98785e-015 0 1.59028e-015 -122.314 -25.8401 -93.5561 -19.3386 63.4232 -91.1548 32.896 12.6189 -24.2676 30.6955 5.49068 8.85686 71.8951 -7.49592 67.7276 23.3645 55.9335 84.0263 -34.6131 17.7842 3.56363 18.146 -44.3214 19.0028 11.5623 50.7315 -18.3531 -3.72279 -1.68108 -0.146131 -1.33249e-009 1.56008e-007 -4.84539e-009 
43.4967 89.3568 -123.157 -1.98911 4.18436 -17.1402 -14.6162 -22.9677 -3.47876 14.5288 57.8411 -39.0616 1.98503 -0.558379 0.261495 0.0462048 0.000533403 0.662642 -6.91742 8.55558 5.73641 -5.0384e-012 -5.55446e-009 1.14023e-012 -7.04721 3.99324 21.8202 -3.97569e-016 1.59028e-015 -1.59028e-015 -122.173 -25.8464 -93.6634 -19.4898 63.5025 -91.2534 33.044 12.5078 -24.3803 30.6348 4.94773 8.70809 71.2231 -7.44334 67.6729 24.1065 55.9711 83.5311 -35.0804 17.4764 4.17522 21.4863 -46.6059 20.4441 9.75814 54.3688 -16.9847 -4.7193 -1.49897 -0.064028 -1.33249e-009 1.56008e-007 -4.84539e-009 
43.0201 86.8981 -125.253 -2.03836 3.91659 -18.2744 -15.5745 -25.1297 -4.05519 15.071 63.0142 -43.5975 -2.45243 -1.53683 0.966237 0.0462048 0.000533403 0.662642 -6.88385 8.82943 6.14697 -5.03363e-012 -5.55446e-009 1.13864e-012 -7.02664 3.7806 21.5713 3.57812e-015 -1.59028e-015 -0 -122.013 -25.9225 -93.9203 -19.8768 63.4729 -90.9682 33.0969 12.3346 -24.7918 30.4371 4.46659 8.60859 70.5935 -7.25932 67.7951 25.086 55.8973 82.682 -35.3872 17.1463 5.03925 25.8689 -49.2579 22.6269 7.94552 58.6242 -15.08 -6.07185 -1.16081 0.147819 -1.33249e-009 1.56008e-007 -4.84539e-009 
42.517 83.8547 -127.881 -2.14441 3.5948 -19.9734 -18.185 -27.9512 -5.25151 24.5387 68.9923 -55.0786 -7.88604 -2.84147 1.80134 0.0462048 0.000533403 0.662642 -6.78076 9.08742 6.54707 -5.03601e-012 -5.55446e-009 1.13705e-012 -6.97328 3.53381 21.3817 1.59028e-015 1.59028e-015 3.18055e-015 -121.834 -26.0721 -94.3028 -20.4718 63.3641 -90.3421 33.1628 12.1111 -25.1186 30.0748 4.05437 8.51996 70.0127 -6.94113 68.115 26.2618 55.7284 81.5609 -35.6924 16.892 5.85374 31.5242 -51.9817 25.7384 5.96548 63.1028 -12.6374 -7.8817 -0.521205 0.423261 -1.33249e-009 1.56008e-007 -4.84539e-009 
42.0404 80.5073 -130.862 -2.2875 3.21154 -22.1351 -22.7982 -30.9077 -6.81565 46.1275 75.1062 -76.4899 -6.04923 -4.16188 3.57066 0.0462048 0.000533403 0.662642 -6.61702 9.32743 6.92685 -5.038e-012 -5.55446e-009 1.13546e-012 -6.88884 3.2516 21.2518 2.38542e-015 -1.59028e-015 -1.59028e-015 -121.638 -26.3199 -94.7705 -21.2362 63.2132 -89.4597 33.1946 11.8601 -25.6461 29.5235 3.72854 8.40027 69.477 -6.50456 68.6515 27.5832 55.4906 80.2807 -35.8371 16.6726 6.82661 38.2767 -54.2748 29.666 3.60151 67.1432 -9.53851 -10.1381 0.635246 0.777252 -1.33249e-009 1.56008e-007 -4.84539e-009 
41.4623 76.7877 -134.283 -2.45744 2.72908 -24.6522 -28.5887 -34.0154 -8.58381 85.8528 76.0611 -115.288 -4.90426 -5.56005 5.0024 0.0462048 0.000533403 0.662642 -6.23152 9.28241 6.90953 -5.04038e-012 -5.55446e-009 1.145e-012 -5.98717 2.08296 21.1186 1.59028e-015 0 3.18055e-015 -121.492 -27.2057 -95.2318 -22.1552 63.0943 -88.4532 33.1515 11.7136 -26.3184 28.8971 3.91153 8.09976 66.39 -5.56141 72.5622 31.9648 51.9679 76.0511 -35.7786 16.6481 8.1143 46.1392 -55.9769 34.3124 0.848636 70.6432 -5.94236 -12.9218 2.32623 1.23939 -1.33249e-009 1.56008e-007 -4.84538e-009 
40.8746 72.6475 -137.984 -2.66209 2.19081 -27.4567 -32.4464 -37.8592 -11.2113 107.411 73.8724 -137.144 -26.4209 -9.43298 3.13672 0.0462048 0.000533403 0.662642 -5.657 8.97771 6.58746 -5.03959e-012 -5.55446e-009 1.145e-012 -4.31591 0.148997 21.0009 -8.82781e-032 1.59028e-015 3.18055e-015 -121.391 -28.7069 -95.6609 -23.1862 62.9787 -87.4142 33.3672 11.5506 -26.6678 27.8431 4.52157 8.02395 64.3859 -4.88713 75.0616 34.4289 50.1484 73.9454 -36.2389 16.5047 8.83718 55.2497 -57.107 39.7305 -2.29962 73.7848 -1.96725 -16.1977 4.50147 1.82536 -1.33249e-009 1.56008e-007 -4.84539e-009 
40.2757 69.1154 -141.772 -2.90981 1.6345 -30.4681 -38.0834 -41.9548 -13.2672 124.712 70.0627 -152.64 -20.6943 -10.0868 5.46015 0.0462048 0.000533403 0.662642 -5.06489 8.71764 6.39661 -5.03879e-012 -5.55445e-009 1.13864e-012 -2.80044 -1.55139 20.9789 -7.95139e-016 3.18055e-015 3.18055e-015 -121.274 -30.3519 -96.1181 -24.2968 62.8691 -86.4196 33.5449 11.4517 -27.0609 26.4984 5.02971 8.0221 63.2399 -4.40791 76.7473 36.0863 49.3217 72.7756 -36.5921 16.4195 9.69159 63.1281 -56.8514 43.7851 -5.36167 75.0768 2.01047 -19.8144 7.16246 2.74316 -1.33249e-009 1.56008e-007 -4.84539e-009 
39.5607 65.6173 -145.783 -3.20115 1.09286 -33.5989 -42.3993 -45.967 -15.9055 133.589 66.6257 -160.576 -27.4426 -11.9735 5.09187 0.0462048 0.000533403 0.662642 -4.4476 8.47938 6.34039 -5.038e-012 -5.55446e-009 1.145e-012 -1.43706 -3.01275 21.0355 7.95139e-016 0 9.54166e-015 -121.171 -32.1577 -96.5513 -25.467 62.7488 -85.4834 33.9189 11.3012 -27.142 24.9871 5.4212 8.09194 62.6714 -4.06371 77.9476 37.3732 48.9933 72.0129 -37.1263 16.2354 10.0901 70.2122 -55.55 45.6342 -12.1518 75.0528 9.71037 -23.7484 9.9511 3.80955 -1.33249e-009 1.56008e-007 -4.84539e-009 
38.7176 62.7256 -149.903 -3.52619 0.592122 -36.7316 -46.6786 -49.9171 -18.5311 139.578 63.4465 -164.985 -27.9874 -12.5759 5.77979 0.0462048 0.000533403 0.662642 -3.80773 8.24766 6.39278 -5.0372e-012 -5.55446e-009 1.13864e-012 -0.228507 -4.21894 21.1609 -7.95139e-016 1.59028e-015 -0 -121.108 -34.1287 -96.8711 -26.6443 62.6111 -84.642 34.333 11.1256 -27.1941 23.4301 5.68809 8.24692 62.4562 -3.80929 78.7902 38.4595 48.8725 71.406 -37.5869 16.0279 10.5255 73.8728 -53.0245 43.2046 -14.7124 71.4547 13.4873 -29.2178 12.3186 5.25175 -1.33249e-009 1.56008e-007 -4.84539e-009 
37.7247 60.3474 -154.047 -3.87134 0.152839 -39.7529 -49.8565 -53.4517 -21.1025 143.044 61.1085 -167.23 -31.3118 -13.1874 5.68891 0.0462048 0.000533403 0.662642 -3.1515 7.97663 6.53227 -5.038e-012 -5.55445e-009 1.13546e-012 0.818495 -5.11277 21.3475 -7.95139e-016 0 -3.18055e-015 -121.067 -36.26 -96.9275 -27.738 62.4522 -83.9471 34.9327 10.8529 -27.0652 21.9574 5.86324 8.48812 62.3992 -3.6042 79.2773 39.3813 48.8142 70.8424 -38.2165 15.7196 10.7042 74.6802 -49.6273 37.5341 -14.7622 65.375 15.0519 -35.6523 14.0418 6.92409 -1.33249e-009 1.56008e-007 -4.84539e-009 
36.5765 58.9126 -158.157 -4.22064 -0.218983 -42.5458 -51.8528 -56.791 -23.3333 145.056 61.2259 -166.76 -29.2237 -12.4665 6.70011 0.0462048 0.000533403 0.662642 -2.48975 7.67686 6.73854 -5.0372e-012 -5.55445e-009 1.13228e-012 1.68937 -5.70109 21.5829 -0 -7.95139e-016 -0 -121.047 -38.4831 -96.6196 -28.6268 62.2883 -83.4846 35.5684 10.5136 -26.9919 20.7002 5.9293 8.82536 62.3248 -3.40844 79.3506 40.1155 48.7777 70.3036 -38.8938 15.3619 10.9776 72.7428 -47.0507 30.5098 -14.1596 58.1995 11.9892 -21.3413 15.8519 6.46361 -1.33249e-009 1.56008e-007 -4.84539e-009 
35.143 58.0033 -162.155 -4.549 -0.578794 -44.967 -50.9577 -58.2771 -22.2307 143.988 60.6788 -163.468 -26.5763 -11.9296 7.05786 0.0462048 0.000533403 0.662642 -1.84376 7.38747 6.95558 -5.038e-012 -5.55445e-009 1.1291e-012 2.34125 -5.93379 21.8589 -0 0 6.36111e-015 -120.987 -40.7313 -95.5848 -29.0184 62.2033 -83.612 36.444 10.0199 -26.6204 20.1429 5.78634 9.1759 61.734 -3.08249 78.6169 40.5927 48.8101 69.9326 -40.1519 14.8017 11.0437 68.6667 -43.6767 21.4572 -12.7478 50.1395 8.34197 -7.67879 16.7486 6.23005 -1.33248e-009 1.56008e-007 -4.84538e-009 
33.6289 57.6072 -165.682 -4.85747 -0.947594 -46.8972 -46.3827 -59.1854 -19.2297 141.871 60.9319 -158.112 -24.4714 -10.2083 6.49467 0.0462048 0.000533403 0.662642 -1.19591 7.11736 7.16257 -5.0384e-012 -5.55446e-009 1.145e-012 2.76465 -5.8294 22.1519 3.97569e-016 -7.95139e-016 -6.36111e-015 -120.821 -42.875 -93.8531 -28.8452 62.1977 -84.3138 36.8769 9.67833 -26.7194 20.1416 5.70491 9.47223 60.7357 -2.65164 77.3401 40.7905 48.9354 69.7021 -40.865 14.3049 11.4438 65.4057 -37.8025 11.9485 -9.40253 40.5891 9.40519 -22.9496 14.6724 9.04393 -1.33248e-009 1.56008e-007 -4.84538e-009 
32.0336 57.6818 -168.577 -5.13222 -1.37089 -48.2179 -41.239 -59.2482 -15.1037 139.659 60.9257 -153.122 -21.4376 -8.54728 5.78328 0.0462048 0.000533403 0.662642 -0.542402 6.89159 7.33406 -5.0372e-012 -5.55446e-009 1.13546e-012 2.94213 -5.41267 22.4506 -3.97569e-016 7.95139e-016 -0 -118.806 -45.883 -86.9726 -22.5099 62.4249 -93.0668 37.1358 9.30142 -26.6468 20.6865 5.77203 9.64955 59.3004 -2.06782 75.5794 40.6836 49.1838 69.662 -41.8778 13.6125 11.8945 62.1037 -33.9011 4.17308 -7.55189 34.7285 10.1814 -22.9261 14.5124 9.03815 -1.33249e-009 1.56008e-007 -4.84538e-009 
30.3986 58.1835 -170.845 -5.36024 -1.88417 -48.8961 -35.5 -58.9344 -10.6693 139.717 62.1602 -149.222 -16.621 -5.94787 5.24957 0.0462048 0.000533403 0.662642 0.0946608 6.72401 7.46143 -5.038e-012 -5.55446e-009 1.14818e-012 2.26535 -3.46769 22.5301 -3.97569e-016 0 -0 -117.098 -47.9312 -81.6668 -18.7185 62.0822 -98.1788 37.0128 9.05638 -26.7493 21.5983 6.02491 9.65285 57.5971 -1.29411 73.4702 40.3156 49.5187 69.7765 -42.5213 12.9454 12.6043 59.4362 -30.6931 -2.36272 -6.29712 30.9458 13.4215 -28.4853 13.3273 9.28223 -1.33249e-009 1.56008e-007 -4.84539e-009 
28.7103 58.9629 -172.656 -5.51778 -2.52586 -49.0309 -29.896 -58.1769 -6.31012 142.266 64.3085 -146.897 -9.84991 -2.95497 4.83133 0.0462048 0.000533403 0.662642 0.671683 6.62852 7.54727 -5.0377e-012 -5.55446e-009 1.14818e-012 0.792034 -0.215913 22.4786 0 0 -0 -115.705 -49.3416 -77.3653 -16.3567 61.7256 -101.193 36.9257 8.86042 -26.8022 22.7792 6.48181 9.28088 55.7286 -0.174501 71.0875 43.3294 46.1169 65.0078 -41.6095 13.3746 17.9181 56.8767 -27.9672 -7.78419 -4.41509 27.7145 16.068 -31.1448 12.7686 9.11437 -1.33249e-009 1.56008e-007 -4.84538e-009 
27.1086 59.9436 -174.055 -5.58451 -3.30032 -48.7391 -26.4914 -56.0776 -2.31056 139.426 67.7368 -140.422 -5.55743 -1.62094 4.96503 0.0462048 0.000533403 0.662642 1.18393 6.62068 7.62563 -5.038e-012 -5.55446e-009 1.13864e-012 -1.4553 4.12648 22.4292 -2.48481e-017 0 -3.18055e-015 -114.612 -50.3202 -73.7003 -14.6278 61.5372 -103.197 36.8116 8.77155 -26.9171 23.9824 7.06532 8.66337 53.9115 1.15331 68.5411 44.3018 44.7745 63.1683 -41.3344 13.4708 21.1615 54.7284 -25.401 -12.0943 -2.37969 24.2489 18.3867 -33.479 12.4477 8.85937 -1.33249e-009 1.56008e-007 -4.84538e-009 
25.6256 60.6234 -174.953 -5.59808 -4.18088 -48.0686 -24.4124 -53.3835 1.34565 136.697 69.3283 -134.24 -1.46063 -0.586632 4.60538 0.0462048 0.000533403 0.662642 1.65137 6.72223 7.66004 -5.038e-012 -5.55446e-009 1.145e-012 -3.72142 8.12022 22.5996 9.93923e-017 0 3.18055e-015 -113.751 -50.9951 -70.49 -13.1544 61.5218 -104.741 36.8489 8.70734 -26.9665 25.0945 7.69995 7.95636 52.2647 2.51541 65.9591 44.2427 44.5609 62.8369 -41.5946 13.2364 22.9078 53.8003 -23.4007 -14.5128 -1.63244 22.6166 23.7113 -51.5012 12.6309 9.83696 -1.33249e-009 1.56008e-007 -4.84538e-009 
